<?xml version="1.0" encoding="utf-8"?>
<!-- Generator: Adobe Illustrator 16.0.4, SVG Export Plug-In . SVG Version: 6.00 Build 0)  -->
<!DOCTYPE svg PUBLIC "-//W3C//DTD SVG 1.1//EN" "http://www.w3.org/Graphics/SVG/1.1/DTD/svg11.dtd">
<svg version="1.1" id="Layer_1" xmlns="http://www.w3.org/2000/svg" xmlns:xlink="http://www.w3.org/1999/xlink" x="0px" y="0px"
	 width="1024px" height="1024px" viewBox="0 0 1024 1024" enable-background="new 0 0 1024 1024" xml:space="preserve">
<g>
	<g>
		<g>
			<path fill="#000000" stroke="#000000" stroke-width="4" d="M330.58,101.284c2.376-1.061,4.734-2.158,7.122-3.179c2.416-0.957,4.829-1.913,7.241-2.869l7.238-2.852
				l3.619-1.419l1.81-0.708l1.839-0.628c4.909-1.663,9.817-3.325,14.729-4.989l3.688-1.239c1.229-0.414,2.489-0.731,3.733-1.101
				c2.497-0.711,4.995-1.424,7.495-2.136c-10.744,2.55-21.224,6.091-31.812,9.397c-10.389,3.847-20.905,7.499-31.06,12.078
				l-7.679,3.3l-1.92,0.829l-1.881,0.91l-3.762,1.828c-5.005,2.46-10.055,4.856-15.024,7.415c-4.897,2.698-9.797,5.397-14.7,8.099
				c-1.222,0.684-2.456,1.348-3.667,2.051l-3.58,2.198l-7.157,4.414c-18.995,11.911-37.335,25.089-54.34,39.918l-3.232,2.731
				l-1.615,1.368l-1.56,1.429l-6.213,5.752c-4.12,3.861-8.348,7.62-12.231,11.731c-3.946,4.046-7.936,8.06-11.827,12.169
				l-11.28,12.701c-14.69,17.248-28.278,35.504-40.38,54.763c-11.962,19.341-22.565,39.541-31.724,60.409
				c-8.959,20.957-16.317,42.58-22.231,64.584c-1.333,5.538-2.665,11.075-3.996,16.61c-0.314,1.388-0.695,2.763-0.951,4.162
				l-0.798,4.192l-1.582,8.388l-1.562,8.391c-0.45,2.807-0.8,5.628-1.199,8.442l-1.152,8.448l-0.568,4.225l-0.283,2.112
				c-0.082,0.705-0.13,1.413-0.197,2.119c-0.486,5.657-0.972,11.312-1.458,16.963l-0.353,4.241l-0.161,4.246l-0.305,8.491
				l-0.287,8.49L55.3,511.88l0.021,2.122l0.056,4.244c0.09,5.66,0.18,11.316,0.27,16.97c0.361,5.65,0.722,11.297,1.083,16.939
				l0.285,4.232l0.144,2.115l0.231,2.108l0.965,8.429l0.983,8.424l0.501,4.21l0.687,4.183c0.932,5.576,1.862,11.148,2.792,16.717
				c0.211,1.396,0.521,2.773,0.821,4.152l0.895,4.138l1.802,8.271c0.623,2.75,1.168,5.521,1.862,8.252l2.192,8.164l2.208,8.157
				l1.11,4.075c0.389,1.353,0.847,2.683,1.268,4.024c1.733,5.356,3.464,10.707,5.193,16.053c0.221,0.667,0.427,1.339,0.661,2.001
				l0.739,1.972l1.481,3.942l2.974,7.877c1.01,2.616,1.953,5.262,3.025,7.851l3.333,7.714l3.347,7.704l1.678,3.847
				c0.583,1.271,1.219,2.516,1.827,3.774c2.469,5.018,4.936,10.03,7.399,15.037c0.598,1.263,1.272,2.482,1.949,3.701l2.015,3.664
				l4.04,7.317c1.367,2.427,2.659,4.897,4.092,7.28l4.361,7.109l4.372,7.096l2.19,3.543l2.329,3.446
				c3.128,4.584,6.251,9.162,9.371,13.733c0.764,1.157,1.605,2.254,2.435,3.36l2.489,3.317l4.985,6.625
				c1.679,2.191,3.291,4.439,5.03,6.579l5.266,6.377l5.274,6.363l2.64,3.176c0.903,1.038,1.839,2.044,2.758,3.066
				c3.702,4.071,7.399,8.136,11.09,12.193l1.394,1.516l1.449,1.459l2.899,2.915l5.802,5.82c1.943,1.93,3.855,3.891,5.825,5.787
				l6.042,5.54c2.018,1.843,4.034,3.685,6.048,5.524c2.02,1.836,4.009,3.706,6.13,5.417c4.191,3.491,8.375,6.977,12.552,10.456
				c2.064,1.775,4.249,3.391,6.41,5.035c2.165,1.642,4.328,3.282,6.489,4.921c2.166,1.637,4.331,3.272,6.493,4.906
				c2.185,1.603,4.444,3.095,6.664,4.645c4.468,3.055,8.896,6.166,13.401,9.145c4.589,2.854,9.17,5.703,13.741,8.547
				c4.408,3.157,10.227,6.574,16.562,10.517c1.591,0.976,3.218,1.975,4.873,2.989c0.831,0.504,1.667,1.013,2.51,1.524
				c0.861,0.478,1.728,0.958,2.599,1.441c3.498,1.928,7.07,3.897,10.643,5.867c1.794,0.981,3.589,1.964,5.374,2.94
				c1.773,1.008,3.622,1.821,5.409,2.728c3.606,1.761,7.136,3.483,10.512,5.132c1.695,0.821,3.352,1.624,4.96,2.403
				c1.6,0.808,3.216,1.423,4.74,2.105c3.072,1.318,5.908,2.535,8.431,3.618c2.567,0.945,5.144,1.895,7.731,2.848l1.946,0.704
				l1.975,0.628c1.319,0.416,2.641,0.834,3.965,1.252c5.31,1.646,10.659,3.306,16.043,4.976c5.448,1.437,10.952,2.831,16.494,4.229
				c1.386,0.347,2.775,0.694,4.165,1.043c1.39,0.355,2.784,0.698,4.196,0.961c2.818,0.565,5.644,1.133,8.478,1.702
				c2.838,0.558,5.684,1.117,8.538,1.678c1.428,0.276,2.858,0.553,4.29,0.829c1.441,0.216,2.883,0.432,4.328,0.648
				c5.788,0.824,11.605,1.654,17.449,2.487l2.195,0.301l2.206,0.207l4.419,0.408c2.951,0.264,5.909,0.528,8.873,0.793
				c2.965,0.252,5.937,0.53,8.916,0.746c2.982,0.115,5.969,0.231,8.962,0.347c2.995,0.104,5.995,0.209,9,0.314
				c3.005,0.083,6.016,0.251,9.033,0.152c6.033-0.104,12.087-0.21,18.155-0.315c3.036-0.009,6.072-0.258,9.112-0.459
				c3.041-0.213,6.085-0.425,9.133-0.638c3.047-0.224,6.098-0.449,9.151-0.674c3.043-0.365,6.089-0.731,9.138-1.098
				c3.048-0.379,6.098-0.758,9.15-1.138l4.58-0.583c1.529-0.174,3.039-0.498,4.561-0.743c6.071-1.077,12.15-2.156,18.235-3.236
				c1.525-0.249,3.029-0.61,4.537-0.952l4.523-1.033l9.045-2.093l4.521-1.06l2.259-0.539l2.235-0.63l8.938-2.54l8.928-2.574
				l2.229-0.648l2.202-0.737l4.397-1.492l8.783-3.009l4.385-1.516c1.465-0.497,2.923-1.009,4.352-1.601
				c5.737-2.297,11.471-4.593,17.196-6.885c2.881-1.102,5.645-2.472,8.453-3.729c2.796-1.286,5.59-2.572,8.381-3.856l4.179-1.938
				c1.393-0.645,2.788-1.28,4.138-2.009c2.72-1.414,5.437-2.827,8.149-4.239c5.411-2.853,10.869-5.587,16.066-8.756
				c5.237-3.095,10.506-6.106,15.638-9.296c5.052-3.316,10.088-6.622,15.105-9.916c19.766-13.615,38.253-28.407,55.173-44.111
				c4.188-3.968,8.239-8.035,12.304-12.028l3.032-3.003l1.51-1.499l1.451-1.554c1.921-2.08,3.836-4.153,5.745-6.22
				c1.901-2.071,3.796-4.136,5.684-6.192c0.938-1.033,1.891-2.051,2.811-3.094c0.895-1.065,1.787-2.13,2.679-3.191
				c3.546-4.259,7.065-8.487,10.559-12.683c0.886-1.037,1.707-2.122,2.514-3.211c0.809-1.088,1.614-2.171,2.416-3.249
				c1.596-2.162,3.161-4.317,4.696-6.463c1.52-2.155,3.025-4.291,4.517-6.406c1.423-2.164,2.762-4.356,4.102-6.512
				c2.665-4.32,5.212-8.582,7.641-12.766c2.31-4.267,4.432-8.503,6.482-12.614c4.219-8.152,7.387-16.287,10.354-23.776
				c0.723-1.879,1.433-3.724,2.128-5.532c0.605-1.85,1.198-3.662,1.779-5.438c1.14-3.554,2.19-6.961,3.158-10.207
				c2.039-6.441,3.264-12.478,4.414-17.681c0.559-2.608,1.053-5.032,1.489-7.259c0.213-1.113,0.417-2.177,0.611-3.19
				c0.178-1.019,0.296-2.007,0.43-2.931c1.018-7.413,1.349-11.474,1.349-11.474c0.562-2.593,1.066-5.197,1.499-7.731
				c0.388-2.551,0.604-5.067,0.795-7.41c0.354-4.696,0.379-8.776-0.018-11.61c-0.797-5.673-3.261-6.358-8.124,2.701
				c-0.901,2.372-1.887,4.966-2.943,7.744c-0.538,1.385-1.027,2.84-1.647,4.293c-0.617,1.454-1.252,2.948-1.902,4.479
				c-1.296,3.061-2.653,6.268-4.058,9.582c-0.703,1.656-1.418,3.338-2.143,5.044c-0.799,1.672-1.609,3.366-2.428,5.078
				c-3.312,6.828-6.561,14.029-10.476,20.893c-1.896,3.458-3.791,6.916-5.668,10.339c-0.906,1.729-2,3.341-2.988,4.993
				c-1.015,1.638-2.021,3.262-3.019,4.87c-2.014,3.198-3.984,6.329-5.894,9.36c-2.058,2.936-4.063,5.76-5.997,8.439
				c-1.935,2.679-3.795,5.213-5.563,7.568c-1.782,2.346-3.625,4.407-5.258,6.323c-3.307,3.803-6.125,6.779-8.284,8.673
				c-2.129,1.918-3.765,2.628-4.423,2.129c-0.357-0.271,0.209-1.394,1.271-3.299c1.063-1.904,2.728-4.514,4.789-7.596
				c1.042-1.532,2.171-3.193,3.365-4.95c1.189-1.76,2.53-3.556,3.733-5.539c2.496-3.907,5.159-8.077,7.825-12.251
				c-1.464-0.909-1.188-5.104-0.296-11.303c0.479-3.08,1.189-6.616,2.062-10.415c0.417-1.909,0.958-3.84,1.381-5.896
				c0.429-2.052,0.889-4.147,1.373-6.263c0.969-4.232,2.036-8.544,3.155-12.757c0.94-4.299,1.93-8.5,2.942-12.425
				c2.166-7.789,3.749-14.76,5.524-19.122c0.233-1.176,0.576-2.702,1.014-4.531c0.223-0.912,0.465-1.903,0.725-2.967
				c0.218-1.077,0.45-2.228,0.697-3.446c0.974-4.872,2.322-10.758,3.645-17.375c0.563-3.33,1.158-6.84,1.774-10.485
				c0.31-1.813,0.626-3.661,0.946-5.537c0.153-0.938,0.336-1.875,0.469-2.831c0.116-0.96,0.233-1.925,0.352-2.896
				c0.471-3.87,0.953-7.83,1.44-11.835c0.218-2.002,0.545-3.989,0.675-6.02c0.146-2.023,0.291-4.053,0.437-6.083
				c0.287-4.039,0.574-8.079,0.858-12.073c0.152-4.002,0.18-7.964,0.269-11.814c0.035-1.924,0.07-3.825,0.104-5.698
				c0.04-1.87,0.083-3.708-0.016-5.524c-0.129-3.616-0.253-7.097-0.371-10.398c-0.063-1.644-0.126-3.243-0.186-4.793
				c-0.062-1.547-0.104-3.041-0.271-4.484c-0.283-2.876-0.544-5.53-0.778-7.917c-0.493-4.764-0.933-8.44-1.3-10.699
				c-1.283-13.863-3.847-13.865-7.051-4.914c-1.531,4.6-3.543,10.903-5.562,18.756c-0.521,1.957-0.995,4.006-1.572,6.128
				c-0.619,2.112-1.263,4.309-1.929,6.581c-0.635,2.258-1.291,4.592-1.967,6.992c-0.667,2.392-1.275,4.849-2.138,7.328
				c-1.606,4.971-3.231,10.135-4.851,15.423c-1.901,5.243-3.826,10.603-5.715,16.019c-0.443,1.36-0.994,2.701-1.548,4.043
				c-0.543,1.341-1.087,2.687-1.633,4.036c-1.071,2.687-2.147,5.386-3.225,8.09c-0.995,2.716-2.301,5.345-3.467,7.995
				c-1.175,2.639-2.349,5.274-3.518,7.898c-4.862,10.397-9.842,20.396-14.877,29.462c-0.605,1.141-1.207,2.271-1.802,3.391
				c-0.295,0.56-0.588,1.116-0.88,1.67c-0.318,0.541-0.636,1.08-0.952,1.615c-1.254,2.14-2.479,4.231-3.673,6.268
				c-1.164,2.04-2.297,4.024-3.394,5.946c-0.271,0.48-0.541,0.957-0.808,1.43c-0.29,0.461-0.577,0.919-0.862,1.372
				c-0.564,0.907-1.119,1.799-1.663,2.673c-8.921,13.878-11.054,12.569-11.042,8.002c-0.235-4.734,1.111-12.978-1.188-14.102
				c-1.613,3.602-3.201,6.947-4.77,10.095c-1.67,3.093-3.436,5.925-5.108,8.661c-0.854,1.357-1.692,2.688-2.518,4
				c-0.419,0.651-0.835,1.298-1.247,1.94c-0.438,0.627-0.898,1.235-1.345,1.847c-1.805,2.427-3.573,4.804-5.341,7.182
				c-0.881,1.186-1.762,2.372-2.647,3.564c-0.864,1.204-1.878,2.317-2.81,3.502c-1.903,2.342-3.812,4.749-5.739,7.289
				c-1.865,2.588-4.014,5.113-6.151,7.879c-1.07,1.382-2.151,2.813-3.246,4.304c-0.543,0.75-1.094,1.511-1.652,2.282
				c-0.549,0.781-1.108,1.572-1.729,2.334c-0.335-0.277-4.521,3.893-11.06,10.825c-3.468,3.286-7.479,7.31-12.015,11.7
				c-2.347,2.113-4.812,4.335-7.37,6.64c-1.27,1.16-2.562,2.341-3.876,3.541c-1.372,1.132-2.766,2.281-4.176,3.445
				c-2.81,2.336-5.689,4.729-8.613,7.16c-3.032,2.291-6.11,4.615-9.207,6.954l-2.313,1.768l-1.156,0.887l-1.204,0.824l-4.813,3.3
				c-1.598,1.106-3.193,2.21-4.782,3.31c-0.793,0.553-1.584,1.104-2.373,1.654c-0.804,0.529-1.632,1.017-2.441,1.526
				c-3.243,2.029-6.447,4.034-9.585,5.997c-0.788,0.484-1.545,1.01-2.344,1.454c-0.799,0.445-1.592,0.889-2.38,1.329
				c-1.573,0.885-3.125,1.759-4.652,2.618c-1.522,0.866-3.021,1.719-4.49,2.554c-0.733,0.421-1.46,0.837-2.179,1.249
				c-0.74,0.372-1.473,0.74-2.197,1.104c-2.889,1.47-5.646,2.872-8.24,4.192c0,0-0.815,0.539-2.688,1.687
				c-0.922,0.602-2.157,1.253-3.697,2.045c-1.542,0.79-3.382,1.733-5.546,2.843c-2.181,1.074-4.65,2.41-7.562,3.722
				c-2.941,1.244-6.247,2.641-9.945,4.204c-0.927,0.389-1.878,0.787-2.854,1.196c-0.488,0.203-0.983,0.408-1.485,0.617
				c-0.512,0.179-1.029,0.361-1.555,0.545c-2.1,0.735-4.304,1.506-6.616,2.315c-2.313,0.807-4.734,1.651-7.267,2.535
				c-2.58,0.735-5.272,1.502-8.082,2.302c-3.756,1.049-6.524,2.017-8.608,2.732c-2.096,0.667-3.461,1.253-4.34,1.783
				c-1.758,1.061-1.566,1.894-1.371,2.723c-0.39-1.659-0.39-1.659-0.78-3.325c-1.805,0.854-3.879,1.662-6.152,2.438
				c-1.141,0.369-2.314,0.807-3.561,1.097c-1.243,0.298-2.528,0.586-3.848,0.866c-2.637,0.56-5.406,1.089-8.241,1.599
				c-1.419,0.243-2.847,0.53-4.297,0.727c-1.456,0.158-2.92,0.317-4.383,0.476c-11.687,1.492-23.453,1.807-31.266,3.132
				c-0.077-1.709-0.077-1.709-0.154-3.416c-7.743,0.971-15.559,1.874-23.379,1.652l-5.867-0.044
				c-1.956-0.028-3.916-0.02-5.858-0.226l-11.674-0.989l-2.917-0.253c-0.972-0.088-1.932-0.27-2.898-0.398l-5.79-0.836l-5.791-0.803
				l-2.897-0.387l-2.87-0.54c-3.829-0.709-7.664-1.373-11.515-1.969c-1.936-0.252-3.834-0.676-5.745-1.052
				c-1.911-0.375-3.827-0.73-5.75-1.063c0.39-1.663,0.39-1.663,0.78-3.33c-1.884-0.431-3.768-0.862-5.62-1.286
				c-0.463-0.106-0.925-0.212-1.384-0.316c-0.452-0.132-0.902-0.263-1.349-0.393c-0.893-0.263-1.775-0.521-2.643-0.776
				c-3.469-1.021-6.7-1.99-9.45-2.872c-2.771-0.814-4.959-1.867-6.485-2.604c-1.517-0.771-2.322-1.38-2.187-1.784
				c0.543-1.621,0.543-1.621,1.086-3.243c-1.734-0.813-3.715-1.623-5.856-2.42c-1.063-0.418-2.197-0.75-3.304-1.229
				c-1.119-0.448-2.261-0.906-3.417-1.37c-2.32-0.906-4.71-1.798-7.08-2.664c-1.187-0.43-2.366-0.857-3.527-1.278
				c-1.147-0.458-2.257-0.957-3.351-1.419c-4.364-1.871-8.289-3.575-11.027-5.002c-2.686-1.538-4.164-2.826-3.787-3.579
				c-0.763,1.529-0.763,1.529-1.527,3.061c-3.402-1.744-6.75-3.461-10.049-5.151c-3.204-1.867-6.36-3.706-9.471-5.519
				c-1.555-0.905-3.099-1.805-4.631-2.697c-1.482-0.978-2.953-1.947-4.415-2.911c-2.925-1.918-5.81-3.811-8.657-5.678
				c-11.038-7.982-21.294-15.834-30.375-24.305c-18.358-16.7-33.327-34.147-46.399-52.743c-1.132-1.52-2.083-3.179-3.115-4.785
				c-1.022-1.61-2.049-3.228-3.079-4.852c-1.039-1.612-2.082-3.231-3.128-4.855c-0.989-1.661-1.93-3.36-2.909-5.04
				c-0.977-1.68-1.957-3.364-2.94-5.056l-1.488-2.529l-0.749-1.266l-0.677-1.311c-1.809-3.495-3.649-6.994-5.521-10.497
				c-0.455-0.883-0.968-1.736-1.381-2.644l-1.265-2.714c-0.852-1.805-1.707-3.615-2.563-5.431c-0.868-1.809-1.738-3.621-2.611-5.438
				c-0.777-1.86-1.556-3.727-2.337-5.597c-0.79-1.864-1.581-3.733-2.375-5.607c-0.801-1.869-1.637-3.729-2.291-5.669
				c-1.401-3.841-2.832-7.686-4.293-11.537c-5.335-15.596-9.779-31.76-13.166-48.375c-0.706-4.182-1.44-8.37-2.201-12.565
				c-0.437-2.089-0.643-4.219-0.911-6.342c-0.27-2.123-0.54-4.248-0.81-6.376c-0.259-2.129-0.6-4.251-0.811-6.392
				c-0.163-2.147-0.327-4.297-0.491-6.449c-0.176-2.15-0.353-4.304-0.529-6.459c-0.083-1.078-0.204-2.153-0.26-3.235l-0.087-3.254
				c-0.122-4.34-0.269-8.687-0.44-13.042c0.073-4.356,0.145-8.719,0.218-13.086l0.034-3.278c0.016-1.093,0.137-2.178,0.198-3.267
				l0.429-6.537l0.394-6.547c0.179-2.178,0.492-4.339,0.722-6.512l0.727-6.518l0.351-3.263c0.104-1.09,0.341-2.158,0.503-3.238
				l2.083-12.952c0.903-4.278,1.806-8.554,2.708-12.829l0.663-3.212c0.262-1.06,0.562-2.11,0.838-3.167l1.673-6.333l1.65-6.34
				l1.989-6.233l1.956-6.242c0.338-1.036,0.612-2.094,0.999-3.113l1.144-3.059c1.544-4.069,2.962-8.188,4.55-12.232
				c1.701-4.002,3.398-7.998,5.092-11.984c7.145-15.796,15.424-30.956,24.646-45.292c2.205-3.076,4.222-6.284,5.834-9.217
				c0.403-0.733,0.781-1.449,1.13-2.141c0.374-0.674,0.736-1.311,1.054-1.927c0.641-1.228,1.145-2.34,1.481-3.285
				c1.337-3.776,0.041-4.875-6.109,0.158c2.389-3.039,4.78-6.08,7.172-9.122c0.6-0.759,1.181-1.533,1.794-2.282l1.91-2.188
				l3.808-4.385l3.792-4.397l0.95-1.097l1.006-1.047l2.009-2.095c2.666-2.804,5.331-5.605,7.992-8.404
				c5.618-5.312,8.881-8.892,11.004-11.599c2.239-2.577,3.291-4.319,4.34-6.079c1.051-1.759,2.109-3.524,4.384-6.145
				c1.104-1.351,2.661-2.735,4.639-4.48c1.986-1.734,4.445-3.767,7.523-6.201c24.479-19.692,51.794-36.12,81.078-47.973l5.466-2.288
				c1.841-0.711,3.716-1.333,5.572-2.007c3.725-1.312,7.432-2.686,11.169-3.972l11.362-3.397l2.84-0.858l1.42-0.43l1.441-0.351
				l5.767-1.398l5.766-1.412c1.922-0.472,3.837-0.981,5.793-1.298l11.675-2.211l2.919-0.561l2.947-0.397l5.895-0.795l5.895-0.809
				c0.984-0.124,1.961-0.299,2.951-0.383l2.968-0.239l11.874-0.99c1.976-0.219,3.967-0.232,5.955-0.292l5.965-0.179
				c7.954-0.455,15.91-0.011,23.868,0.085c1.994-0.017,3.97,0.22,5.952,0.348l5.945,0.44l5.946,0.426l1.487,0.106l1.477,0.19
				l2.954,0.378l11.819,1.476c3.922,0.604,7.813,1.384,11.725,2.052l5.861,1.031l5.796,1.341c3.858,0.913,7.734,1.757,11.586,2.697
				l11.436,3.275l2.86,0.809l1.432,0.403l1.406,0.482l5.626,1.928l5.63,1.913l2.817,0.951c0.94,0.314,1.846,0.723,2.771,1.08
				l11.053,4.392c0.916,0.377,1.856,0.696,2.754,1.119l2.703,1.241l5.409,2.472l5.416,2.456c0.913,0.389,1.792,0.848,2.669,1.312
				l2.64,1.371l10.575,5.448l10.289,5.979l2.576,1.486c0.862,0.49,1.724,0.981,2.544,1.542l4.991,3.24l5,3.226l2.504,1.607
				c0.831,0.54,1.615,1.15,2.427,1.721l9.675,6.933c1.645,1.112,3.167,2.389,4.724,3.618l4.664,3.697l4.675,3.684
				c1.542,1.247,2.996,2.602,4.501,3.894c2.977,2.624,6.003,5.19,8.959,7.836c5.673,5.55,11.583,10.857,16.904,16.752l4.101,4.311
				c0.678,0.724,1.386,1.42,2.04,2.166l1.936,2.259l7.778,9.004c0.668,0.734,1.273,1.52,1.878,2.305l1.829,2.346l3.668,4.682
				l3.677,4.675l3.431,4.857l3.446,4.845l1.729,2.419l0.866,1.208l0.799,1.253l6.417,10.007l1.614,2.496
				c0.513,0.848,0.988,1.716,1.485,2.573l2.963,5.151c1.961,3.441,4.059,6.81,5.777,10.381l5.456,10.555
				c1.701,3.575,3.286,7.204,4.955,10.795c0.815,1.804,1.677,3.588,2.464,5.405l2.192,5.519l2.212,5.512l1.113,2.754l0.558,1.377
				l0.479,1.405l3.881,11.229l0.982,2.804c0.323,0.936,0.562,1.899,0.849,2.847l1.662,5.705l1.684,5.7
				c0.271,0.953,0.591,1.893,0.823,2.856l0.688,2.892l2.802,11.56c0.527,1.915,0.797,3.885,1.19,5.829l1.114,5.847l1.135,5.846
				c0.216,0.97,0.326,1.958,0.465,2.941l0.408,2.952l1.688,11.806c0.407,3.957,0.723,7.926,1.11,11.89l0.571,5.949l0.252,5.978
				L856.801,512c0.008-3.997,0.016-7.931,0.023-11.81c0.017-1.943,0.033-3.872,0.049-5.789c-0.083-1.911-0.166-3.809-0.248-5.696
				c-0.152-3.78-0.303-7.513-0.452-11.208c-0.242-3.687-0.655-7.318-0.954-10.935c-0.466-7.259-1.678-14.284-2.62-21.306
				c-0.398-3.527-1.218-6.954-1.861-10.412c-0.691-3.448-1.319-6.908-2.055-10.343c-0.867-3.404-1.735-6.808-2.604-10.219
				c-0.436-1.708-0.871-3.417-1.308-5.13c-0.452-1.708-1.046-3.377-1.563-5.073c-1.076-3.382-2.157-6.779-3.245-10.198
				c-0.503-1.725-1.199-3.387-1.838-5.078c-0.648-1.687-1.3-3.38-1.955-5.081c-0.656-1.7-1.316-3.407-1.979-5.123
				c-0.339-0.854-0.65-1.723-1.016-2.572c-0.383-0.841-0.767-1.685-1.151-2.531c-1.546-3.379-3.107-6.794-4.689-10.251
				c-0.403-0.86-0.781-1.736-1.209-2.591c-0.449-0.845-0.899-1.693-1.352-2.544c-0.905-1.7-1.817-3.41-2.735-5.133
				c-1.862-3.43-3.621-6.977-5.811-10.359c0.744-0.417,1.864-1.035,1.779-3.318c-0.043-1.142-0.388-2.702-1.229-4.866
				c-0.421-1.082-0.966-2.314-1.658-3.72c-0.355-0.698-0.71-1.461-1.173-2.23c-0.465-0.767-0.972-1.579-1.524-2.438
				c-12.558-21.034-28.23-41.431-45.786-59.662c-17.533-18.264-36.916-34.341-56.317-47.622
				c-19.394-13.322-38.778-23.831-56.122-32.073c-4.26-2.247-8.566-3.942-12.595-5.818c-2.02-0.93-3.995-1.838-5.924-2.726
				c-0.956-0.471-1.925-0.87-2.886-1.252c-0.957-0.395-1.901-0.785-2.834-1.17c-3.727-1.553-7.244-3.079-10.533-4.572
				c-0.817-0.39-1.637-0.726-2.448-1.038c-0.807-0.328-1.601-0.649-2.379-0.965c-1.557-0.641-3.053-1.276-4.486-1.905
				c-7.688-3.225-15.361-6.71-27.341-10.808c-3.019-0.913-6.306-1.863-9.931-2.85c-1.813-0.485-3.706-1.015-5.702-1.487
				c-2.012-0.385-4.112-0.788-6.311-1.209c-2.207-0.391-4.511-0.8-6.921-1.228c-1.207-0.202-2.441-0.408-3.703-0.62
				c-1.261-0.23-2.567-0.299-3.894-0.455c-2.66-0.254-5.436-0.519-8.334-0.795c-1.45-0.126-2.933-0.255-4.446-0.386
				c-0.757-0.063-1.521-0.126-2.295-0.19c-0.773-0.065-1.56-0.052-2.352-0.081c2.119-0.004,4.222,0.245,6.331,0.387l6.321,0.483
				l6.32,0.473l1.579,0.119l1.57,0.203l3.14,0.404l12.562,1.59c4.169,0.646,8.309,1.469,12.468,2.185
				c0.312-1.68,0.936-5.039,0.936-5.039c-2.097-0.428-4.21-0.86-6.339-1.295c-1.065-0.219-2.134-0.438-3.206-0.658
				c-1.073-0.218-2.146-0.463-3.24-0.601c-4.362-0.659-8.783-1.327-13.253-2.002c-1.119-0.17-2.24-0.342-3.365-0.513
				c-1.123-0.189-2.264-0.243-3.4-0.373c-2.276-0.225-4.564-0.451-6.863-0.678c-4.601-0.426-9.236-1.04-13.94-1.147
				c-4.702-0.227-9.437-0.456-14.197-0.686c-4.768,0.011-9.562,0.022-14.372,0.034c-4.821-0.102-9.634,0.274-14.467,0.521
				c-4.829,0.287-9.69,0.403-14.498,1.027c-4.819,0.524-9.652,0.979-14.465,1.541c-4.787,0.748-9.566,1.494-14.328,2.237
				l-3.573,0.555l-3.529,0.737c-2.353,0.489-4.699,0.977-7.04,1.463c-2.344,0.484-4.681,0.966-7.011,1.447
				c-2.315,0.545-4.598,1.185-6.889,1.768c-2.289,0.594-4.569,1.186-6.84,1.775c-2.267,0.607-4.557,1.11-6.76,1.862
				c-4.445,1.391-8.85,2.769-13.207,4.131c-2.199,0.63-4.309,1.47-6.43,2.241c-2.12,0.778-4.226,1.552-6.319,2.321
				c-2.096,0.766-4.178,1.528-6.245,2.284c-2.043,0.814-4.041,1.701-6.041,2.536c0,0-1.382-3.124-2.071-4.682
				c0,0-2.001,0.905-5.004,2.262c-1.501,0.678-3.253,1.468-5.13,2.315c-0.948,0.403-1.891,0.898-2.851,1.395
				c-0.962,0.493-1.939,0.995-2.917,1.496c-3.911,2.002-7.822,4.003-10.755,5.505c-1.482,0.723-2.632,1.481-3.477,1.938
				c-0.833,0.48-1.309,0.754-1.309,0.754c-4.541,0.888-5.92,0.199-4.628-1.815c1.303-1.987,5.178-5.475,11.475-9.434
				c12.313-8.399,33.995-19.445,60.676-28.612c26.643-9.268,58.427-15.719,89.156-18.167c1.92-0.163,3.835-0.326,5.744-0.488
				c0.954-0.076,1.906-0.174,2.858-0.231c0.954-0.032,1.905-0.064,2.854-0.095c3.799-0.128,7.566-0.255,11.29-0.381
				c1.862-0.064,3.714-0.127,5.554-0.191c1.84,0.027,3.667,0.053,5.483,0.079c3.63,0.057,7.207,0.113,10.72,0.169
				c1.756,0.049,3.501,0,5.219,0.127c1.72,0.112,3.422,0.224,5.105,0.333c3.369,0.215,6.663,0.425,9.873,0.63
				c1.604,0.118,3.193,0.159,4.747,0.334c1.555,0.174,3.087,0.346,4.595,0.516c3.019,0.331,5.942,0.652,8.76,0.961
				c0.232-1.683,0.701-5.071,0.936-6.764c0,0-2.29-0.291-5.726-0.728c-1.717-0.218-3.721-0.473-5.867-0.746
				c-1.075-0.124-2.181-0.305-3.313-0.393c-1.133-0.086-2.283-0.174-3.435-0.261c-4.604-0.35-9.207-0.7-12.659-0.962
				c-1.728-0.119-3.164-0.268-4.174-0.291c-1.01-0.025-1.586-0.04-1.586-0.04l0.154-3.412c27.898,1.264,54.487,5.322,79.87,11.701
				c25.385,6.391,49.577,15.1,72.735,25.989c23.152,10.9,45.284,23.984,66.417,39.433c21.123,15.457,41.259,33.288,60.127,53.895
				c-3.217-3.374-7.236-7.589-11.656-12.225c-1.081-1.182-2.287-2.292-3.49-3.443c-1.205-1.149-2.429-2.316-3.667-3.497
				c-2.476-2.36-5.004-4.771-7.532-7.18c-5.239-4.618-10.536-9.174-15.387-13.351c-5.034-3.956-9.61-7.552-13.271-10.429
				c0.511-0.677,1.037-1.367-0.428-3.312c-1.521-1.869-5.089-4.936-12.736-10.372c3.822,2.725,7.704,5.493,11.638,8.298
				c1.996,1.364,3.859,2.931,5.788,4.435c1.918,1.519,3.848,3.047,5.788,4.583c1.936,1.542,3.882,3.092,5.838,4.65
				c1.883,1.646,3.775,3.3,5.676,4.962c1.9,1.663,3.809,3.333,5.725,5.01c0.957,0.839,1.917,1.679,2.878,2.521
				c0.923,0.884,1.848,1.77,2.774,2.658c3.694,3.559,7.416,7.144,11.156,10.747c3.571,3.771,7.162,7.561,10.765,11.364l2.702,2.856
				c0.873,0.979,1.717,1.985,2.578,2.977c1.715,1.99,3.432,3.983,5.15,5.978l5.163,5.983l4.885,6.222l4.891,6.217
				c0.812,1.039,1.642,2.062,2.437,3.112l2.298,3.213c3.065,4.282,6.124,8.556,9.173,12.815c2.865,4.387,5.72,8.758,8.56,13.106
				c0.705,1.091,1.442,2.16,2.119,3.264c0.659,1.115,1.318,2.228,1.976,3.338c1.32,2.221,2.636,4.435,3.946,6.641
				c10.363,17.712,19.537,35.509,26.97,52.844c4.247,8.449,5.876,7.928,3.982-1.544c-0.989-4.72-2.616-11.79-6.025-20.761
				c-0.815-2.258-1.701-4.653-2.658-7.183c-0.492-1.259-0.945-2.579-1.52-3.883c-0.579-1.302-1.174-2.639-1.784-4.01
				c-1.247-2.733-2.557-5.604-3.928-8.61c-0.7-1.499-1.416-3.032-2.147-4.599c-0.763-1.551-1.624-3.092-2.466-4.687
				c-7.049-12.607-14.131-23.805-21.314-34.188c-1.83-2.573-3.638-5.116-5.429-7.635c-1.794-2.518-3.536-5.04-5.463-7.398
				c-1.88-2.394-3.749-4.773-5.612-7.145l-2.793-3.551c-0.937-1.177-1.836-2.383-2.843-3.5c-3.938-4.545-7.875-9.09-11.861-13.692
				c-4.197-4.411-8.446-8.876-12.799-13.452c-1.069-1.163-2.231-2.246-3.389-3.35c-1.157-1.104-2.321-2.215-3.494-3.334
				c-2.348-2.237-4.729-4.507-7.152-6.816c-0.609-0.573-1.208-1.164-1.833-1.73c-0.638-0.553-1.277-1.108-1.921-1.667
				c-1.287-1.115-2.585-2.241-3.896-3.377c-2.623-2.271-5.297-4.585-8.027-6.949l2.184-2.626
				c14.937,12.406,32.261,29.468,47.977,47.884c1.963,2.303,3.927,4.606,5.884,6.902l1.464,1.722l1.387,1.78
				c0.925,1.185,1.848,2.366,2.768,3.544c1.845,2.351,3.677,4.688,5.492,7.001c0.911,1.155,1.817,2.304,2.718,3.447
				c0.852,1.181,1.697,2.354,2.538,3.521c3.385,4.652,6.681,9.182,9.843,13.528c3.004,4.458,5.918,8.709,8.716,12.685
				c5.959,7.733,1.846-1.098-2.375-10.045c-1.053-2.242-2.105-4.484-3.026-6.446c-0.981-1.927-1.796-3.604-2.267-4.774
				c-0.942-2.34-0.513-2.659,2.69,1.116c0.706,1.013,1.449,2,2.123,3.034l2.004,3.114l4.019,6.22l4.046,6.203
				c0.696,1.021,1.325,2.083,1.954,3.144l1.91,3.173c2.555,4.227,5.158,8.428,7.821,12.608c2.473,4.284,5.015,8.54,7.654,12.765
				c-13.252-26.626-32.151-55.929-54.455-82.38c-2.848-3.254-5.694-6.508-8.535-9.755c-1.427-1.617-2.823-3.257-4.269-4.849
				c-1.486-1.554-2.971-3.105-4.451-4.653c-2.959-3.098-5.904-6.182-8.83-9.245c-3.004-2.984-6.077-5.859-9.069-8.761
				c-11.958-11.628-24.298-21.933-35.793-31.347c-1.787-1.736-3.723-3.28-5.569-4.886c-1.856-1.599-3.684-3.172-5.452-4.694
				c-1.76-1.548-3.461-3.045-5.074-4.465c-1.58-1.474-3.192-2.702-4.602-3.957c-5.695-4.93-9.246-8.718-8.35-10.169
				c-21.6-12.85-42.973-23.508-63.726-32.527c-5.224-2.184-10.374-4.338-15.452-6.461c-5.163-1.926-10.252-3.825-15.267-5.696
				c-4.985-1.988-10.042-3.502-14.979-5.168c-2.474-0.824-4.929-1.643-7.364-2.454c-1.221-0.397-2.426-0.841-3.648-1.198
				c-1.224-0.353-2.443-0.703-3.658-1.053C578.256,75.7,542.926,68.965,511.994,64.699c-2.573-0.369-6.446-0.627-11.377-0.783
				c-2.466-0.078-5.197-0.13-8.161-0.158c-1.481,0.008-3.024-0.072-4.617,0.026c-1.593,0.076-3.241,0.155-4.94,0.236
				c-3.397,0.194-6.997,0.4-10.769,0.617c-1.886,0.123-3.814,0.249-5.783,0.377c-1.96,0.223-3.959,0.45-5.994,0.681
				c-8.132,0.993-16.857,1.88-25.785,3.646c-4.474,0.808-9.034,1.599-13.624,2.494c-4.557,1.064-9.163,2.14-13.789,3.22
				c-2.31,0.549-4.625,1.099-6.942,1.649c-2.3,0.613-4.583,1.301-6.872,1.952c-4.57,1.329-9.13,2.654-13.651,3.969
				c-4.49,1.411-8.879,3.006-13.231,4.479c-4.333,1.53-8.653,2.883-12.73,4.602c-4.107,1.636-8.119,3.235-12.009,4.786
				c-1.934,0.8-3.879,1.488-5.713,2.344C334.164,99.667,332.354,100.484,330.58,101.284z"/>
		</g>
	</g>
</g>
</svg>
